<svg width="16" height="17" viewBox="0 0 16 17" fill="none" xmlns="http://www.w3.org/2000/svg">
<circle cx="8" cy="9" r="8" fill="#DB4444"/>
<path d="M5.66083 12.124C6.67683 11.308 7.47283 10.64 8.04883 10.12C8.62483 9.592 9.10883 9.044 9.50083 8.476C9.90083 7.9 10.1008 7.336 10.1008 6.784C10.1008 6.264 9.97283 5.856 9.71683 5.56C9.46883 5.256 9.06483 5.104 8.50483 5.104C7.96083 5.104 7.53683 5.276 7.23283 5.62C6.93683 5.956 6.77683 6.408 6.75283 6.976H5.69683C5.72883 6.08 6.00083 5.388 6.51283 4.9C7.02483 4.412 7.68483 4.168 8.49283 4.168C9.31683 4.168 9.96883 4.396 10.4488 4.852C10.9368 5.308 11.1808 5.936 11.1808 6.736C11.1808 7.4 10.9808 8.048 10.5808 8.68C10.1888 9.304 9.74083 9.856 9.23683 10.336C8.73283 10.808 8.08883 11.36 7.30483 11.992H11.4328V12.904H5.66083V12.124Z" fill="#FAFAFA"/>
</svg>
